<svg xmlns="http://www.w3.org/2000/svg" viewBox="0 0 24 24" width="24" height="24">
  <rect x="3" y="9" width="18" height="12" rx="2" fill="#6750A4"/>
  <rect x="4" y="10" width="7" height="5" rx="0.5" fill="#D0BCFF"/>
  <rect x="12" y="10" width="7" height="5" rx="0.5" fill="#D0BCFF"/>
  <rect x="4" y="16" width="7" height="4" rx="0.5" fill="#D0BCFF"/>
  <rect x="12" y="16" width="7" height="4" rx="0.5" fill="#D0BCFF"/>
  <rect x="6" y="12" width="3" height="2" rx="0.5" fill="#6750A4"/>
  <rect x="14" y="12" width="3" height="2" rx="0.5" fill="#6750A4"/>
  <rect x="6" y="18" width="3" height="1" rx="0.5" fill="#6750A4"/>
  <rect x="14" y="18" width="3" height="1" rx="0.5" fill="#6750A4"/>
  <rect x="5" y="6" width="4" height="3" rx="1" fill="#D0BCFF"/>
  <rect x="10" y="6" width="4" height="3" rx="1" fill="#D0BCFF"/>
  <rect x="15" y="6" width="4" height="3" rx="1" fill="#D0BCFF"/>
</svg>